# xmcd
#
# Track frame offsets:
#	150
#	17352
#	31592
#	42937
#	60970
#	78797
#	92862
#	108312
#	116837
#	131197
#
# Disc length: 1938 seconds
#
# Revision: 1
# Processed by: cddbd v1.5.2PL0 Copyright (c) Steve Scherf et al.
# Submitted via: audiograbber 1.83.01
#
DISCID=7007900a
DTITLE=Othla Gesslin - Right Direction
DYEAR=1900
DGENRE=
TTITLE0=Foot Of The Cross
TTITLE1=The Picture
TTITLE2=Right Direction
TTITLE3=Mother's Heart
TTITLE4=I've Been Changed
TTITLE5=I Am
TTITLE6=Hands
TTITLE7=Don't Let Me Sit
TTITLE8=Surely Alive
TTITLE9=My Last Song
EXTD=
EXTT0=
EXTT1=
EXTT2=
EXTT3=
EXTT4=
EXTT5=
EXTT6=
EXTT7=
EXTT8=
EXTT9=
PLAYORDER=
